<?xml version="1.0" ?><svg id="Layer_1" style="enable-background:new 0 0 50 50;" version="1.1" viewBox="0 0 50 50" xml:space="preserve" xmlns="http://www.w3.org/2000/svg" xmlns:xlink="http://www.w3.org/1999/xlink"><style type="text/css">
	.st0{fill:#F0C4DB;}
	.st1{fill:#FF9D9C;}
	.st2{fill:#9BEAF9;}
	.st3{fill:#E9F4BC;}
	.st4{fill:#505050;}
	.st5{fill:#FEBECC;}
	.st6{fill:#FFFFFF;}
	.st7{fill:#FDE4A1;}
	.st8{fill:#FEE7B5;}
	.st9{fill:#CDF6FC;}
	.st10{fill:#F2C6DD;}
	.st11{opacity:0.1;}
</style><g><path class="st0" d="M1.35,48.66h23.63c0-8.78-7.12-15.9-15.9-15.9c-2.81,0-5.45,0.74-7.74,2.02V48.66z"/><g><g><path class="st3" d="M14.83,17.48l-6.9-6.9c-1.41-1.41-3.82-1.04-4.67,0.77l10.78,10.78C15.81,21.27,16.26,18.91,14.83,17.48z"/><path class="st3" d="M38.78,41.43l-6.9-6.9c-1.19-1.19-3.04-1.08-4.12,0c-0.22,0.22-0.39,0.49-0.54,0.78l10.78,10.78     C39.81,45.25,40.19,42.83,38.78,41.43z"/><path class="st1" d="M27.09,35.59c-0.72,2-3.28,2.58-4.79,1.07l-9.6-9.6c-1.19-1.19-1.08-3.04,0-4.12     c0.29-0.29,0.65-0.52,1.07-0.68c0.1-0.04,0.19-0.1,0.28-0.14L3.27,11.35c-3.29,7.04-0.06,17.94,8.37,26.37     c8.43,8.43,19.34,11.66,26.37,8.37L27.23,35.31C27.18,35.4,27.12,35.49,27.09,35.59z"/><g class="st11"><path d="M27.27,35.35l-0.04-0.04c-0.01,0.02-0.02,0.04-0.03,0.06C27.22,35.36,27.24,35.35,27.27,35.35z"/><path d="M14.05,22.13l-0.04-0.04c-0.01,0.02-0.01,0.05-0.02,0.07C14.01,22.15,14.03,22.14,14.05,22.13z"/></g><polygon class="st2" points="42.07,13.96 42.07,10.19 22.94,10.19 22.94,5.86 42.07,5.86 42.07,2.09 48,8.02    "/><polygon class="st2" points="25.91,16.61 25.91,20.38 45.03,20.38 45.03,24.71 25.91,24.71 25.91,28.48 19.98,22.55    "/></g><g><path class="st4" d="M18.12,42.03c-0.34-0.22-0.82-0.11-1.03,0.22c-0.11,0.17-0.15,0.37-0.11,0.57c0.04,0.19,0.15,0.35,0.32,0.46     v0.01c0.13,0.08,0.27,0.12,0.41,0.12c0.26,0,0.49-0.13,0.63-0.34c0.11-0.17,0.15-0.37,0.11-0.57     C18.41,42.31,18.29,42.14,18.12,42.03z"/><path class="st4" d="M32.41,34c-0.69-0.7-1.61-1.08-2.58-1.08c-0.97,0-1.92,0.39-2.6,1.07c-0.38,0.38-0.67,0.84-0.85,1.35     c-0.31,0.86-1.11,1.42-2.04,1.42c-0.58,0-1.1-0.22-1.51-0.63l-9.6-9.6c-0.42-0.41-0.64-0.94-0.64-1.52     c0-0.57,0.23-1.14,0.63-1.53c0.23-0.23,0.5-0.4,0.8-0.5c1.45-0.53,2.42-1.92,2.41-3.46c0.01-0.96-0.37-1.88-1.07-2.57l-6.9-6.9     c-0.69-0.7-1.62-1.08-2.6-1.08H5.84c-1.39,0-2.67,0.81-3.25,2.06c0,0,0,0.01,0,0.01c-0.01,0.02-0.01,0.03-0.02,0.05     c-0.87,1.89-1.31,4.03-1.31,6.39c0.01,6.83,3.69,14.6,9.86,20.77c1.42,1.42,2.94,2.73,4.51,3.88c0.33,0.24,0.82,0.16,1.05-0.16     c0.25-0.34,0.17-0.81-0.16-1.05c-1.52-1.11-2.98-2.37-4.34-3.73c-5.91-5.9-9.43-13.26-9.42-19.71c0-1.74,0.27-3.35,0.79-4.8     l9.24,9.24c-0.22,0.14-0.43,0.31-0.62,0.5c-0.69,0.69-1.07,1.61-1.07,2.59c0,0.97,0.38,1.89,1.07,2.58l9.61,9.6     c0.68,0.69,1.59,1.07,2.56,1.07v-0.05l0.02,0.05c1.27,0,2.41-0.66,3.08-1.69l9.25,9.25c-1.45,0.52-3.05,0.8-4.81,0.8     c-3.75,0-8.04-1.27-12.07-3.56c-0.35-0.2-0.83-0.07-1.02,0.28c-0.1,0.17-0.12,0.38-0.07,0.57c0.05,0.19,0.18,0.35,0.35,0.45     c4.32,2.46,8.75,3.75,12.82,3.76c2.22,0,4.26-0.41,6.07-1.19c0.06,0.02,0.12,0.04,0.19,0.04c0.19,0,0.38-0.07,0.53-0.22     c0.08-0.08,0.13-0.17,0.17-0.26c0.96-0.66,1.56-1.77,1.56-2.98c0-0.99-0.39-1.91-1.08-2.6L32.41,34z M5.86,10.47     c0.58,0,1.13,0.23,1.54,0.64l6.9,6.9c0.41,0.41,0.63,0.94,0.63,1.51c0,0.66-0.3,1.26-0.77,1.66l-9.94-9.94     C4.61,10.76,5.19,10.47,5.86,10.47z M38.11,45.13l-9.94-9.94c0.04-0.05,0.07-0.1,0.12-0.14c0.4-0.4,0.95-0.63,1.54-0.63     c0.58,0,1.11,0.22,1.52,0.64l6.9,6.9c0.41,0.41,0.63,0.95,0.64,1.54C38.88,44.15,38.59,44.74,38.11,45.13z"/><path class="st4" d="M48.53,7.49L42.6,1.56c-0.21-0.21-0.54-0.28-0.82-0.16c-0.28,0.12-0.46,0.39-0.46,0.69v3.02H22.94     c-0.41,0-0.75,0.34-0.75,0.75v4.33c0,0.41,0.34,0.75,0.75,0.75h18.38v3.02c0,0.3,0.18,0.58,0.46,0.69     c0.09,0.04,0.19,0.06,0.29,0.06c0.2,0,0.39-0.08,0.53-0.22l5.93-5.94C48.82,8.26,48.82,7.78,48.53,7.49z M42.82,12.14v-1.95     c0-0.41-0.34-0.75-0.75-0.75H23.69V6.61h18.38c0.41,0,0.75-0.34,0.75-0.75V3.9l4.12,4.12L42.82,12.14z"/><path class="st4" d="M45.03,19.63H26.65v-3.02c0-0.3-0.18-0.58-0.46-0.69c-0.28-0.12-0.6-0.05-0.82,0.16l-5.93,5.94     c-0.29,0.29-0.29,0.77,0,1.06l5.93,5.93c0.14,0.14,0.33,0.22,0.53,0.22c0.1,0,0.19-0.02,0.29-0.06c0.28-0.12,0.46-0.39,0.46-0.69     v-3.02h18.38c0.41,0,0.75-0.34,0.75-0.75v-4.33C45.78,19.96,45.45,19.63,45.03,19.63z M44.28,23.96H25.9     c-0.41,0-0.75,0.34-0.75,0.75v1.96l-4.12-4.12l4.12-4.12v1.95c0,0.41,0.34,0.75,0.75,0.75h18.38V23.96z"/></g></g></g></svg>